<svg id="Layer_1" data-name="Layer 1" xmlns="http://www.w3.org/2000/svg" viewBox="0 0 35.46 35.182">
  <defs>
    <style>
      .cls-1 {
        fill: #232323;
        fill-rule: evenodd;
      }
    </style>
  </defs>
  <title>d66f364d-8eda-4dab-8632-78278e2b8905</title>
  <path class="cls-1" d="M17.585,29.478A11.966,11.966,0,0,1,5.717,17.6,12.181,12.181,0,0,1,6.83,12.567l2.38,2.384.556-4.9.556-4.879-4.883.557L.556,6.284,2.647,8.378A17.383,17.383,0,0,0,0,17.6a17.689,17.689,0,0,0,17.585,17.58,16.715,16.715,0,0,0,9.355-2.629l-4.194-4.211a10.3,10.3,0,0,1-5.161,1.136Zm15.639-3.654h0a18.394,18.394,0,0,0,2.1-8.222A17.647,17.647,0,0,0,17.585,0,17.826,17.826,0,0,0,9.355,2.095l4.327,4.322a8.885,8.885,0,0,1,3.9-.69A11.8,11.8,0,0,1,28.9,21.5l-2.091-2.094-.556,4.746-.567,4.9,4.895-.557,4.883-.423Z"/>
</svg>
